<svg xmlns="http://www.w3.org/2000/svg" width="1200" height="630" viewBox="0 0 1200 630" role="img" aria-labelledby="title description">
  <title id="title">Swimmy Jail</title>
  <desc id="description">A friendly whale swimming through a bright underwater passage.</desc>
  <defs>
    <linearGradient id="water" x1="0" y1="0" x2="0" y2="1">
      <stop stop-color="#2597c3"/>
      <stop offset="1" stop-color="#062d4b"/>
    </linearGradient>
    <linearGradient id="whale" x1="0" y1="0" x2="1" y2="1">
      <stop stop-color="#95cad7"/>
      <stop offset="1" stop-color="#4b8298"/>
    </linearGradient>
  </defs>
  <rect width="1200" height="630" fill="url(#water)"/>
  <g opacity=".17" fill="#d9ffff">
    <path d="M40 0h82l210 630h-95zM270 0h55l190 630h-80zM670 0h80l190 630h-105zM970 0h60l-10 630h-110z"/>
  </g>
  <g fill="none" stroke="#d8ffff" stroke-width="3" opacity=".7">
    <circle cx="170" cy="130" r="11"/><circle cx="196" cy="88" r="6"/><circle cx="1050" cy="216" r="13"/><circle cx="1104" cy="153" r="7"/>
  </g>
  <g>
    <rect x="68" y="0" width="125" height="268" rx="20" fill="#ce5f79"/>
    <path d="M79 43h103M79 94h103M79 145h103M79 196h103" stroke="#f599a7" stroke-width="11" stroke-linecap="round"/>
    <rect x="48" y="250" width="165" height="27" rx="10" fill="#813a62"/>
    <rect x="1018" y="390" width="115" height="240" fill="#668b91"/>
    <path d="M1028 443h95m-95 53h95m-95 53h95" stroke="#b3d1c4" stroke-width="10"/>
    <path d="M1001 390h150v-23h-150z" fill="#405c69"/>
  </g>
  <g transform="translate(545 330)">
    <path d="M-75 12l-118-58 24 63-40 55 137-22z" fill="#31556c"/>
    <ellipse cx="0" cy="0" rx="138" ry="88" fill="url(#whale)"/>
    <ellipse cx="35" cy="43" rx="78" ry="34" fill="#e6f4ef"/>
    <path d="M-4-65c10-83 76-94 89-89-13 54-2 81 35 99z" fill="#467d92"/>
    <circle cx="89" cy="-23" r="13" fill="#193243"/><circle cx="93" cy="-27" r="4" fill="white"/>
    <path d="M91 16q23 24 46 0" fill="none" stroke="#29485b" stroke-width="7" stroke-linecap="round"/>
    <path d="M31 68q-7 38 21 61" fill="none" stroke="#467d92" stroke-width="22" stroke-linecap="round"/>
  </g>
  <path d="M0 598q154-73 326-18t317-18q200-88 557 4v64H0z" fill="#073d57"/>
  <text x="600" y="125" text-anchor="middle" fill="#fff8df" font-family="Arial, sans-serif" font-size="80" font-weight="800">SWIMMY <tspan fill="#f9c74f">JAIL</tspan></text>
  <text x="600" y="183" text-anchor="middle" fill="#d9f4ed" font-family="Arial, sans-serif" font-size="28" font-weight="700" letter-spacing="4">A JONAH-INSPIRED UNDERWATER ADVENTURE</text>
</svg>
